/* XPM */ 
 static char *XPM_icon[] = {
"24 30 18 1",
"  c #2E3440",
"s c #3B4252",
"S c #3B4252",
"r c #BF616A",
"R c #BF616A",
"g c #A3BE8C",
"G c #A3BE8C",
"y c #EBCB8B",
"Y c #EBCB8B",
"b c #81A1C1",
"B c #81A1C1",
"m c #B48EAD",
"M c #B48EAD",
"c c #88C0D0",
"C c #88C0D0",
"w c #D8DEE9",
"W c #D8DEE9",
". c #00192A",
"                        ",
"                        ",
"                        ",
"                        ",
"                        ",
"                        ",
"                        ",
"                        ",
"  wwwwwwwwwwwwwwwwwwww  ",
" w                    w ",
" w                    w ",
" w                   ww ",
" w  yyy yyy yyy yyy w   ",
" w  y y y y y y y y w   ",
" w  yyy yyy yyy yyy w   ",
" w                   ww ",
" w                    w ",
" w                    w ",
" w            ww      w ",
" w g g g g y w  w w w w ",
" w g g g g y y  w w w w ",
" wgggggggggyyy  wwwwwww ",
"                        ",
"                        ",
"                        ",
"                        ",
"                        ",
"                        ",
"                        ",
"                        ",
};
