/* XPM */
static const char *const circle_right[] = {
"9 30 2 1",
". c #2E3440",
"  c #00192A",
".........",
".........",
".........",
".........",
".........",
".........",
".........",
".........",
".........",
".........",
".........",
".........",
".........",
".........",
".........",
".........",
".........",
".........",
".........",
".........",
".........",
".........",
"........ ",
"........ ",
".......  ",
"......   ",
".....    ",
"....     ",
"..       ",
"         "
};
