<?xml version="1.0" encoding="utf-8"?><svg xmlns="http://www.w3.org/2000/svg" width="166px" height="164px" x="0px" y="0px"><g fill-rule="evenodd" clip-rule="evenodd"><path fill="#D9261C" d="M62.9 9.71l5.28-7.69 6.89 5.44 4.96-5.92 4.16 5.44 8.01-5.92 3.04 7.05 8.33-4.8 2.88 7.85 9.45-2.4.64 6.4 8.01-2.56 1.44 8.17 7.37-2.08-.32 8.17 8.33-1.12-.48 8.97 9.45-.48-3.04 6.89 6.4 2.4-2.08 6.4 8.49 2.24-4.96 5.76 8.17 3.52-5.76 5.44 7.21 3.84-5.76 3.68 4.32 4.16-5.6 4.16 5.44 5.28-5.44 4.16 4.96 5.76-5.76 1.92 4.16 6.08-6.89 1.92 3.52 6.56-6.4.48 2.24 7.85-8.17 1.44.48 8.49-6.56.64v7.85h-6.57L131.3 149l-8.49-3.36-.16 9.45-7.85-3.36-2.88 7.37-8.49-5.28-4.16 7.37-6.57-4.64-6.08 6.4-6.4-4.96-7.37 4.64-5.12-5.76-6.57 3.52-4.48-6.73-8.97 2.24.64-7.37-9.93 1.92.16-7.85-7.37 2.88v-9.13l-9.61-.96 2.88-5.76-8.17-1.28 2.56-7.21-7.37-.8 3.2-6.89-7.21-1.92 4.48-6.24-7.53-1.12 4.64-4.64-5.76-3.04 4.8-5.44-5.76-3.52L7.98 84l-6.73-4.8 7.21-4.48-5.44-5.6 5.76-1.76-3.2-5.44 4.32-1.28-3.04-5.94 5.76-1.92-1.6-8.01 6.24-.32-2.4-8.49 8.17-.16.32-9.13 6.72 1.28.8-7.53 7.53.64.8-7.21 7.05 2.56 1.28-7.53 7.53 3.04 4-6.73m23.67 2.05c41.02 0 74.48 33.46 74.48 74.48s-33.46 74.48-74.48 74.48S8.25 122.74 8.25 81.72 41.71 7.24 82.73 7.24z"/><path fill="#FFF" d="M83 7.52c41.02 0 74.48 33.46 74.48 74.48S124.02 156.48 83 156.48 8.52 123.02 8.52 82 41.98 7.52 83 7.52"/><path fill="#1A3882" d="M96.49 119.34c-.31 5 0 8.41.57 13.62.21 2.27 1.91 2.73 3.3.57 1.13-1.81 1.6-2.79 2.84-4.49.98-1.29 1.7-3.15 4.18-3.4 5.31-.52 9.49-2.11 13.41-3.61 1.65-.62 1.81-2.01 1.39-3.82-.46-1.86-1.39-2.58-2.37-4.28-.77-1.44.21-2.79 1.19-3.4 4.59-2.89 6.19-6.81 8.92-11.04 1.86-2.84-1.65-2.32-2.42-1.7-1.7 1.34-2.42 2.58-3.71 4.33-.88 1.19-2.17 1.86-3.61 3.09-3.66 1.29-5.47 1.91-9.08 3.2-.41.15-.83-.88-.41-1.08.57-.26 1.29 0 1.39-.62.15-1.5.26-2.27.41-3.71.05-.62-.93-1.08-1.39-.67-2.58 2.42-3.82 3.66-6.4 6.09-1.03.98-1.39 1.6-2.22 2.79-2.38 3.23-3.57 4.88-5.99 8.13m23.11-18.72c0 .36-.26.62-.62.62s-.62-.26-.62-.62.26-.62.62-.62.62.26.62.62zm3.19-2.68c0 .52-.36.88-.83.88-.52 0-.88-.36-.88-.88 0-.46.36-.83.88-.83.47 0 .83.36.83.83zm-3.3-2.22c0 .57-.41.98-.93.98s-.98-.41-.98-.98c0-.52.46-.93.98-.93s.93.41.93.93zm3.82-1.6c0 .46-.36.88-.83.88-.46 0-.88-.41-.88-.88 0-.46.41-.83.88-.83.47.01.83.37.83.83zm-2.94-2.11c0 .62-.52 1.08-1.08 1.08-.57 0-1.03-.46-1.03-1.08 0-.57.46-1.03 1.03-1.03.56-.01 1.08.46 1.08 1.03zm5.62-.52c0 .36-.36.72-.72.72-.41 0-.77-.36-.77-.72 0-.41.36-.77.77-.77.36 0 .72.36.72.77zm-2.68-2.22c0 .52-.41.93-.93.93-.57 0-.98-.41-.98-.93 0-.57.41-.98.98-.98.52 0 .93.42.93.98zm-4.9-.56c0 .41-.31.77-.72.77s-.72-.36-.72-.77c0-.41.31-.72.72-.72.41-.01.72.3.72.72zm.77-4.8c0 .36-.31.67-.62.67-.36 0-.67-.31-.67-.67 0-.36.31-.62.67-.62.31 0 .62.26.62.62zm4.28.77c0 .36-.36.72-.77.72-.41 0-.72-.36-.72-.72 0-.41.31-.77.72-.77s.77.36.77.77zm3.82.21c0 .41-.36.72-.77.72-.41 0-.72-.31-.72-.72s.31-.77.72-.77c.41-.01.77.36.77.77zm1.91-4.28c0 .62-.46 1.08-1.08 1.08-.57 0-1.03-.46-1.03-1.08 0-.57.46-1.08 1.03-1.08.62-.01 1.08.51 1.08 1.08zm-5.98.1c0 .62-.46 1.08-1.03 1.08-.62 0-1.08-.46-1.08-1.08 0-.57.46-1.03 1.08-1.03.56 0 1.03.46 1.03 1.03zM74.05 72.3c-.52.77-1.39 1.29-2.22 1.29-.83 0 0-1.08.41-1.7.72-1.08 1.08-1.5 1.91-1.5.83 0 .36 1.29-.1 1.91zm21.92-.93c1.5 0 2.58-1.81 3.61-3.3 1.5 1.5 1.5 3.09 1.29 5.21-.26 2.58-3.51 4.02-4.23 2.48-.72-1.55-.77-2.89-.67-4.39zm-24.34-5.1c-1.34-.88-1.75-1.96-3.3-2.17-3.2-.41-5.05 1.7-3.4 4.69.77 1.5 1.34 2.32 2.84 2.99 1.19.52 1.91.62 2.68-1.19.71-1.69-.73-3.6 1.18-4.32zM59.66 72.1c-2.32 2.17-2.53 4.59-1.75 6.19.57 1.29 2.11 1.81 3.04.88 1.29-1.29 1.7-2.68 2.17-4.49-1.19-.78-2.17-1.91-3.46-2.58zm-36.11 43.99A67.376 67.376 0 0114.32 82c0-31.31 21.3-57.92 50.19-66.02-1.96 13.57-3.09 21.77-2.68 36.36-13.41 2.53-19.81 3.35-31.83 6.91-5.52 1.6-6.24 3.61-1.6 4.8 10.21 2.53 18.72 2.32 30.43 2.94.15 1.39.26 2.06.41 3.4-8.3 5.47 1.7 18.1 5.31 5 1.96 2.48 2.79 5 2.17 8.41-.31 1.6-1.81 3.77-4.28 2.37-1.5-.88-3.61-1.5-5.52 0-2.27 1.75-2.99 2.53-5.52 4.9-2.94 2.63-6.4 2.22-10.21 6.14-7.27 7.49-10.83 11.56-17.64 18.88zM151.63 82c0 23.37-11.81 44.15-29.81 56.53-2.89-5.21-5.21-7.27-6.55-13.2 2.68-.93 3.97-1.19 6.45-2.58 1.19-.62 2.27-1.7 1.86-3.61-.36-1.44.21-3.2 1.03-4.23.98-1.19 1.39-2.27.88-3.61-.41-1.03-.1-2.48.93-2.99 2.58-1.29.93-3.82 2.58-5.98 1.39-1.81 3.09-3.92 1.19-5.93 1.34-5.73 2.01-8.56 3.35-14.29-.41-.15-.62-.26-1.03-.41-1.34 5.62-2.06 8.41-3.4 14.49-2.22.72-3.09 1.91-4.69 4.02-2.79 3.77-6.4 5.93-11.4 6.6.1-2.99.52-8.97 2.17-25.22l-.57-.1c-1.03 7.69-1.5 11.5-2.53 19.14-3.77 3.51-5.62 5.26-9.39 8.72-5.73-8.05-9.8-13.72-15.99-18.52 1.75-5.11 2.58-7.63 4.07-12.33-2.11.1-2.22 5.21-4.28 6.6-.83.57-1.19 1.6-1.24 2.99-.1 1.75-.15 2.68-.21 4.44-.15 2.63-2.94 2.84-3.4.57-.52-2.32-.77-3.46-1.29-5.67-5.78.26-8.2-3.92-6.6-7.94 2.32.83 8.41 1.5 7.74-.77-2.94.1-7.22.31-6.24-1.19.72-.72 1.19-1.13 2.11-2.01 1.91.57 3.56.41 5.98.67.72 2.42 3.71.83 5.11-1.7-3.51 0-5.98.1-9.49.31-.21-1.08-.21-2.01.31-3.09-.77.15-1.13.26-1.91.41-1.39.67-1.7-.41-1.29-1.91.67-2.32.41-4.38.88-7.01.36-2.37 2.48-2.11 3.4-.62 1.91 2.94 6.34 2.73 10.63.21 1.24-.77 2.32-.05 2.89.83.98 1.6 2.22 3.4.83 5.42-1.13 1.7-1.29 3.61-.31 5.67 4.18 8.61 11.91 1.29 7.01-8.3 12.79-3.4 20.01-4.9 30.69-12.79 1.81-1.34 4.38-4.18-2.17-3.4-10.83 1.29-17.23 2.17-28.52 5.78-19.55 6.24-31.26 5.52-51.73 3.35 5.16-1.75 7.69-2.63 12.79-4.44 20.22.83 31.93-1.91 49.16-6.4-5.52.15-8.25.26-13.82.46-3.04-14.34-4.75-22.39-9.03-35.28 35.1 2.86 62.85 32.51 62.85 68.31zm3.45 0c0 39.61-32.44 72.06-72.11 72.06-39.61 0-72.06-32.44-72.06-72.06 0-39.61 32.44-72.06 72.06-72.06 39.67 0 72.11 32.45 72.11 72.06z"/></g></svg>